<?xml version="1.0" encoding="UTF-8" standalone="no"?>
<!-- Created with Inkscape (http://www.inkscape.org/) -->

<svg
   width="53.909mm"
   height="53.909mm"
   viewBox="0 0 53.909 53.909"
   version="1.1"
   id="svg1791"
   inkscape:version="1.2.2 (732a01da63, 2022-12-09)"
   sodipodi:docname="icon.svg"
   xmlns:inkscape="http://www.inkscape.org/namespaces/inkscape"
   xmlns:sodipodi="http://sodipodi.sourceforge.net/DTD/sodipodi-0.dtd"
   xmlns="http://www.w3.org/2000/svg"
   xmlns:svg="http://www.w3.org/2000/svg">
  <sodipodi:namedview
     id="namedview1793"
     pagecolor="#ffffff"
     bordercolor="#000000"
     borderopacity="0.25"
     inkscape:showpageshadow="2"
     inkscape:pageopacity="0.0"
     inkscape:pagecheckerboard="0"
     inkscape:deskcolor="#d1d1d1"
     inkscape:document-units="mm"
     showgrid="false"
     inkscape:zoom="0.71624579"
     inkscape:cx="229.66976"
     inkscape:cy="561.95793"
     inkscape:window-width="1920"
     inkscape:window-height="991"
     inkscape:window-x="-9"
     inkscape:window-y="-9"
     inkscape:window-maximized="1"
     inkscape:current-layer="layer1" />
  <defs
     id="defs1788" />
  <g
     inkscape:label="Layer 1"
     inkscape:groupmode="layer"
     id="layer1">
    <g
       id="g1751"
       transform="matrix(0.20474597,0,0,0.20474597,-60.326742,49.630507)">
      <circle
         style="fill:#0f172a;fill-opacity:1;stroke-width:0.534545;stroke-linejoin:round;paint-order:stroke fill markers"
         id="path1746"
         cx="426.29041"
         cy="-110.75191"
         r="131.6485" />
      <g
         style="fill:#ffffff;fill-opacity:1"
         id="g296"
         transform="matrix(1.5910231,-0.54629569,0.54629569,1.5910231,322.18713,-174.589)">
        <path
           id="_0601-chef-hat"
           data-name="0601-chef-hat"
           d="m 137.321,1192.281 c -2.91,-0.139 -5.69,-0.406 -8.651,-0.494 -2.6,-0.446 -5.095,-1 -7.663,-1.483 a 1.205,1.205 0 0 0 -1.236,-0.493 c -0.851,-0.8 -2.32,-0.976 -2.966,-1.979 -1.538,-0.027 -2.01,-1.12 -2.965,-1.73 -1.086,-2.622 -1.363,-6.052 -1.237,-9.887 0.486,-3.221 0.059,-7.357 1.484,-9.64 -0.526,-1.371 -1.5,-2.291 -1.484,-4.2 -0.418,-0.489 -0.27,-1.543 -0.493,-2.226 0.131,-1.038 -0.434,-1.38 -0.5,-2.224 -0.357,-6.812 -0.233,-14.1 -0.247,-21.259 a 10.7,10.7 0 0 0 0.247,-3.46 5.425,5.425 0 0 0 0.247,-2.72 c -1.866,-1.018 -4.147,-1.618 -5.932,-2.718 a 25.393,25.393 0 0 1 -4.7,-3.709 22.26,22.26 0 0 1 -5.686,-11.369 v -9.39 c 1.15,-5.36 2.613,-10.408 5.439,-14.091 a 22.167,22.167 0 0 1 2.225,-1.729 51.771,51.771 0 0 1 4.7,-2.965 c 0.209,-0.115 0.48,-0.108 0.741,-0.247 a 7.627,7.627 0 0 1 1.237,-0.743 c 3.275,-1.235 7.779,-3.011 12.852,-2.965 0.4,0.068 0.427,-0.235 0.742,-0.248 a 53.873,53.873 0 0 1 6.674,0.248 10.273,10.273 0 0 1 2.966,0.492 c 0.934,0.22 2.122,0.185 2.719,0.742 3.905,0.71 6.693,2.535 10.135,3.708 2.878,1.735 6.13,3.1 9.145,4.7 3.249,1.366 6.289,2.939 9.393,4.451 0.544,0.854 1.609,1.193 1.73,2.471 a 8.966,8.966 0 0 1 3.708,-0.494 c 1.085,0.645 2.579,0.881 3.46,1.731 a 8.729,8.729 0 0 1 3.214,1.729 61.848,61.848 0 0 1 6.921,3.215 c 2.649,0.727 4.54,2.215 6.922,3.213 a 59.78,59.78 0 0 1 5.683,4.449 8.161,8.161 0 0 0 1.732,2.225 6.852,6.852 0 0 0 1.235,2.471 28.543,28.543 0 0 1 0.742,5.933 c -0.525,6.148 -3.559,9.788 -6.674,13.348 a 41.232,41.232 0 0 1 -6.921,4.7 c -2.585,0.818 -6.171,2.625 -9.393,1.234 -0.286,-0.619 -0.984,-0.826 -0.989,-1.73 -0.312,-0.83 0.968,-1.308 0.247,-1.729 -1.327,-0.175 -0.953,1.354 -0.989,2.471 v 3.46 c 0.507,1.718 0.134,4.316 0.247,6.427 a 111.2,111.2 0 0 1 0.494,13.1 c -0.233,1.847 -0.678,3.285 -0.246,5.191 0.174,1.246 -0.912,1.231 -0.989,2.225 0.592,4.226 1.005,10.565 -0.495,14.089 a 0.677,0.677 0 0 0 0,0.99 c 0.508,-0.283 1.179,0.389 0.495,0.494 -1.188,3.014 -4.765,3.64 -7.911,4.7 a 72.978,72.978 0 0 1 -10.875,1.731 z m 7.663,-8.65 c 1.364,0.283 1.6,1.7 1.731,3.213 a 112.555,112.555 0 0 0 22.74,-1.732 c -0.345,-1.609 0.661,-3.265 0.742,-5.191 -0.152,-2.649 0.312,-5.914 -0.247,-8.156 a 118.568,118.568 0 0 1 -27.685,1.482 55.076,55.076 0 0 1 -3.46,6.179 c -1.669,1.63 -2.821,3.774 -5.685,4.2 -4.244,-1.112 -3.7,-7.013 -5.191,-10.877 a 30.2,30.2 0 0 1 -10.134,-1.237 c -0.247,0 -0.293,0.2 -0.495,0.248 v 0.494 c -0.193,1.017 0.38,1.268 0.248,2.224 v 4.944 c 0.109,0.47 -0.337,1.49 0.494,1.237 -0.113,-2.42 0,-4.613 2.225,-4.7 a 2.832,2.832 0 0 1 1.73,1.73 54.7,54.7 0 0 0 -0.247,7.664 16.53,16.53 0 0 0 2.224,0.494 c 0.049,-3.411 -0.3,-7.221 2.719,-7.664 1.262,0.3 1.351,1.781 1.236,3.461 a 20.268,20.268 0 0 1 -0.247,4.7 68.031,68.031 0 0 0 11.124,0.494 c -0.132,-2.356 0.083,-4.367 2.225,-4.45 2.014,0.088 1.862,2.662 1.483,4.45 1.157,0.251 -0.045,-1.858 0.741,-1.977 a 1.357,1.357 0 0 1 1.459,-1.25 q 0.127,0.01 0.27,0.02 z m -12.359,-13.6 c 0.61,0.791 -0.64,1.374 -0.247,2.72 a 40.664,40.664 0 0 1 1.481,5.437 c 0.437,0.458 0.768,-0.063 0.99,-0.495 0.287,-0.37 0.714,-0.6 0.742,-1.235 0.883,-0.517 1.027,-1.774 1.73,-2.472 a 15.1,15.1 0 0 1 1.483,-2.471 c 0.41,-0.25 0.267,-1.049 0.494,-1.483 0.574,-0.167 0.661,-0.82 1.236,-0.988 a 35.989,35.989 0 0 1 8.171,-0.5 c 1.076,0.011 2.153,0.022 3.2,0 6.549,-0.619 13.585,-0.752 19.281,-2.225 -1.07,-4.122 -0.626,-9.756 -1.237,-14.337 v -3.954 a 29.174,29.174 0 0 1 0,-8.158 c -0.144,-4.182 0.358,-7.718 0.495,-11.619 a 11,11 0 0 0 -1.629,-0.056 12.338,12.338 0 0 1 -2.821,-0.19 c -1.4,-0.331 -2.616,-0.845 -2.719,-2.472 0.388,-1.179 1.442,-1.687 2.965,-1.73 a 26.679,26.679 0 0 1 3.956,-0.989 c 0.04,-0.288 0.391,-0.266 0.741,-0.248 0.754,-0.4 1.067,-1.241 1.978,-1.482 2.576,0.608 4.444,-1.213 6.922,-1.483 h 2.224 c 0.82,-0.08 1.52,-0.039 1.73,0.493 -0.508,2.211 -2.119,3.318 -3.707,4.45 a 16.07,16.07 0 0 1 -2.72,1.238 c -0.588,0.811 -2.508,0.291 -2.472,1.73 0.978,0.637 2.189,-0.608 3.216,-0.743 1.678,-0.113 3.155,-0.025 3.46,1.237 0.284,2.178 -1.253,2.538 -2.473,3.214 a 5.139,5.139 0 0 1 -2.224,0.742 c -0.325,0.661 -1.978,0 -1.978,0.987 0.69,0.447 1.952,-0.239 2.967,-0.247 a 4.663,4.663 0 0 1 2.471,1.236 c 0.55,1.065 -1.041,2 0,1.978 a 19.291,19.291 0 0 0 8.405,-4.7 17.1,17.1 0 0 0 5.438,-7.911 c 0.055,-0.191 0.005,-0.488 0.247,-0.494 v -3.955 c -0.336,0.088 -0.292,-0.2 -0.247,-0.495 0.045,-0.295 0.088,-0.583 -0.247,-0.495 0.1,-0.6 -0.452,-0.537 -0.247,-1.234 -3,-4.333 -7.858,-6.809 -13.1,-8.9 a 23.126,23.126 0 0 0 -3.708,-1.729 34.813,34.813 0 0 0 -3.708,-1.979 c -2.177,-1.53 -4.482,-2.933 -6.673,-4.45 -0.361,-0.463 -0.01,-1.636 -0.495,-1.976 a 2.433,2.433 0 0 1 -2.225,0.989 10.373,10.373 0 0 1 -4.944,-0.989 11.076,11.076 0 0 1 -4.2,-1.73 c -1.755,-0.223 -2.583,-1.373 -4.2,-1.732 -1.139,-0.921 -2.866,-1.254 -3.956,-2.224 -1.6,-0.376 -2.65,-1.3 -4.2,-1.731 -1.1,-0.959 -2.887,-1.231 -4.2,-1.976 a 39.984,39.984 0 0 0 -9.64,-2.473 41.009,41.009 0 0 0 -15.325,1.978 c -3.788,3.462 -8.562,5.941 -11.37,10.381 -0.056,0.192 -0.007,0.487 -0.247,0.495 -0.2,1.942 -0.511,3.773 -0.743,5.684 v 4.7 a 17.678,17.678 0 0 0 4.944,11.37 20.507,20.507 0 0 0 9.641,4.449 c 0.628,0.525 1.893,0.414 2.719,0.742 a 14.994,14.994 0 0 1 2.965,0.494 c 2.157,0.233 4.6,0.178 6.674,0.494 h 13.349 c 2.312,-0.324 4.838,-0.434 7.168,-0.74 2.191,-0.412 5.455,-0.556 6.179,1.234 -0.587,2.873 -3.293,3.627 -5.932,4.451 a 59.2,59.2 0 0 1 -9.146,1.236 h -11.873 a 98.953,98.953 0 0 1 -10.876,-1.236 9.328,9.328 0 0 0 0,4.7 c 0.2,0.237 0.563,0.014 1,-0.207 a 1.925,1.925 0 0 1 1.224,-0.287 1.661,1.661 0 0 1 1.978,1.235 c 0.073,1.8 -1.345,2.117 -2.225,2.967 -1.168,0.563 -2.4,1.063 -1.978,3.212 1.832,-0.784 5.812,-2.412 6.179,0.743 -0.2,1.613 -1.767,1.858 -2.719,2.719 -1.252,0.56 -2.256,1.369 -3.46,1.976 -0.059,1.626 0.436,2.7 0.247,4.45 2.085,-0.469 2.935,-2.173 5.191,-2.471 a 4.531,4.531 0 0 1 2.966,-0.988 c 1.394,-0.077 2.588,0.049 2.718,1.237 -0.358,2.6 -3.247,2.684 -4.7,4.2 -2.161,0.806 -3.781,2.152 -5.686,3.214 0.121,1.774 0.418,3.374 0.495,5.189 0.278,1.774 -0.661,2.459 -0.247,3.707 a 41.345,41.345 0 0 0 11.617,1.237 c 1.252,0.491 3.073,0.403 3.467,1.738 z m 2.471,-11.369 a 10.959,10.959 0 0 0 -0.988,-1.238 c 0.445,-1.613 1.8,-2.316 3.213,-2.965 a 12.918,12.918 0 0 1 3.955,-2.226 c 0.23,0.015 0.485,0.01 0.739,0 0.6,-0.021 1.2,-0.041 1.487,0.25 -0.038,2.434 -1.773,3.17 -3.461,3.956 a 5.668,5.668 0 0 1 -2.225,1.481 4.9,4.9 0 0 1 -2.17,0.8 2.59,2.59 0 0 1 -0.546,-0.054 z m 8.157,-1.484 c 0.211,-1.6 1.757,-1.869 2.472,-2.966 1.027,-0.786 2.211,-1.414 3.214,-2.226 0.35,0.021 0.7,0.04 0.741,-0.247 0.842,-0.017 1.725,-0.076 1.977,0.493 0.853,1.977 -1.175,3.072 -2.224,3.955 -1.329,0.813 -2.334,1.952 -4.2,2.225 a 2.9,2.9 0 0 1 -1.98,-1.23 z"
           transform="translate(-95.547,-1080.281)"
           style="fill:#ffffff;fill-opacity:1" />
      </g>
    </g>
  </g>
</svg>
